<svg width="15" height="20" viewBox="0 0 15 20" fill="none" xmlns="http://www.w3.org/2000/svg">
<path d="M6.71131 20H3.34173C1.4991 20 0 17.8972 0 15.3125V4.6875C0 2.10281 1.4991 0 3.34173 0H6.71131C8.55394 0 10.053 2.10281 10.053 4.6875V5.46875C10.053 5.90023 9.80369 6.25 9.49609 6.25C9.18848 6.25 8.93913 5.90023 8.93913 5.46875V4.6875C8.93913 2.96438 7.93973 1.5625 6.71131 1.5625H3.34173C2.11331 1.5625 1.11391 2.96438 1.11391 4.6875V15.3125C1.11391 17.0356 2.11331 18.4375 3.34173 18.4375H6.71131C7.93973 18.4375 8.93913 17.0356 8.93913 15.3125V14.5312C8.93913 14.0998 9.18848 13.75 9.49609 13.75C9.80369 13.75 10.053 14.0998 10.053 14.5312V15.3125C10.053 17.8972 8.55394 20 6.71131 20Z" fill="#041E42"/>
<path d="M12.0856 13.75C11.9428 13.75 11.8 13.6734 11.6912 13.5204C11.474 13.2149 11.4745 12.7202 11.6923 12.4155L12.9813 10.6122C13.0861 10.4657 13.1438 10.2711 13.1438 10.0644C13.1438 9.85832 13.0865 9.66441 12.9825 9.51812L11.6953 7.74488C11.4759 7.44254 11.4727 6.94793 11.6882 6.64008C11.9037 6.33226 12.2564 6.32777 12.4758 6.63008L13.7649 8.4059C13.7659 8.40726 13.7668 8.40863 13.7678 8.41004C14.0837 8.8518 14.2577 9.43933 14.2577 10.0644C14.2577 10.6894 14.0837 11.2769 13.7678 11.7187L12.4789 13.5219C12.3702 13.6739 12.2279 13.75 12.0856 13.75ZM12.0577 9.99996C12.0577 9.56847 11.8084 9.21871 11.5008 9.21871H5.48567C5.17806 9.21871 4.92871 9.56847 4.92871 9.99996C4.92871 10.4314 5.17806 10.7812 5.48567 10.7812H11.5008C11.8084 10.7812 12.0577 10.4314 12.0577 9.99996Z" fill="#041E42"/>
</svg>



