<svg width="64" height="60" viewBox="0 0 64 60" fill="none" xmlns="http://www.w3.org/2000/svg">
<rect width="64" height="60" stroke="#DBDADE"/>
<path d="M31.65 32.65C31.75 32.75 31.8667 32.8 32 32.8C32.1333 32.8 32.25 32.75 32.35 32.65L35.15 29.85C35.3167 29.6833 35.3583 29.5 35.275 29.3C35.1917 29.1 35.0333 29 34.8 29H29.2C28.9667 29 28.8083 29.1 28.725 29.3C28.6417 29.5 28.6833 29.6833 28.85 29.85L31.65 32.65ZM32 40C30.6167 40 29.3167 39.7373 28.1 39.212C26.8833 38.6867 25.825 37.9743 24.925 37.075C24.025 36.175 23.3127 35.1167 22.788 33.9C22.2633 32.6833 22.0007 31.3833 22 30C22 28.6167 22.2627 27.3167 22.788 26.1C23.3133 24.8833 24.0257 23.825 24.925 22.925C25.825 22.025 26.8833 21.3127 28.1 20.788C29.3167 20.2633 30.6167 20.0007 32 20C33.3833 20 34.6833 20.2627 35.9 20.788C37.1167 21.3133 38.175 22.0257 39.075 22.925C39.975 23.825 40.6877 24.8833 41.213 26.1C41.7383 27.3167 42.0007 28.6167 42 30C42 31.3833 41.7373 32.6833 41.212 33.9C40.6867 35.1167 39.9743 36.175 39.075 37.075C38.175 37.975 37.1167 38.6877 35.9 39.213C34.6833 39.7383 33.3833 40.0007 32 40ZM32 38C34.2167 38 36.1043 37.221 37.663 35.663C39.2217 34.105 40.0007 32.2173 40 30C40 27.7833 39.221 25.8957 37.663 24.337C36.105 22.7783 34.2173 21.9993 32 22C29.7833 22 27.8957 22.779 26.337 24.337C24.7783 25.895 23.9993 27.7827 24 30C24 32.2167 24.779 34.1043 26.337 35.663C27.895 37.2217 29.7827 38.0007 32 38Z" fill="#626974"/>
</svg>



