<svg width="20" height="19" viewBox="0 0 20 19" fill="none" xmlns="http://www.w3.org/2000/svg">
<ellipse cx="10" cy="9.475" rx="10" ry="9.475" fill="white"/>
<path d="M16.8936 7.98919C16.6882 7.85854 16.5027 7.70182 16.3423 7.52337C16.3542 7.27492 16.4069 7.02974 16.4985 6.79671C16.6707 6.24432 16.8852 5.55685 16.4719 5.01892C16.0555 4.4767 15.295 4.4585 14.6839 4.4437C14.4269 4.45343 14.1698 4.42724 13.9208 4.36597C13.7839 4.1625 13.6793 3.94105 13.6106 3.70871C13.4067 3.15856 13.1527 2.47383 12.4725 2.2644C11.8125 2.06115 11.2202 2.4473 10.6979 2.78687C10.4881 2.94565 10.2524 3.07115 10.0002 3.15854C9.74781 3.07125 9.51204 2.94572 9.30213 2.78687C8.77984 2.447 8.18737 2.06207 7.52753 2.2644C6.84754 2.47383 6.59364 3.15822 6.38952 3.70849C6.32087 3.93966 6.21748 4.16028 6.08256 4.36358C5.83278 4.42672 5.57436 4.45365 5.31608 4.44348C4.70508 4.45825 3.94451 4.47648 3.52818 5.01867C3.11483 5.5569 3.32929 6.24437 3.50151 6.79681C3.59206 7.02863 3.64523 7.27203 3.65922 7.51887C3.49954 7.69983 3.31336 7.85824 3.10633 7.98922C2.61333 8.34545 2 8.78894 2 9.47521C2 10.1615 2.61333 10.605 3.10644 10.9612C3.31181 11.0919 3.49731 11.2486 3.6577 11.4271C3.64578 11.6755 3.59308 11.9206 3.50146 12.1537C3.32926 12.7061 3.11478 13.3936 3.52812 13.9315C3.94446 14.4737 4.70503 14.4919 5.31605 14.5067C5.5731 14.497 5.83023 14.5232 6.07922 14.5845C6.21612 14.7879 6.32066 15.0094 6.38945 15.2417C6.59356 15.792 6.84746 16.4766 7.52761 16.6861C7.64811 16.7235 7.77414 16.7426 7.90096 16.7426C8.41285 16.7426 8.88028 16.4381 9.30218 16.1637C9.51207 16.0048 9.7477 15.8793 9.99997 15.7919C10.2524 15.8792 10.4881 16.0047 10.6981 16.1636C11.2203 16.5034 11.8127 16.888 12.4727 16.686C13.1526 16.4766 13.4065 15.7922 13.6107 15.2419C13.6793 15.0108 13.7827 14.7901 13.9176 14.5868C14.1674 14.5237 14.4258 14.4968 14.6841 14.5069C15.2951 14.4922 16.0557 14.4739 16.472 13.9318C16.8853 13.3935 16.6709 12.706 16.4987 12.1536C16.4081 11.9218 16.355 11.6784 16.341 11.4316C16.5006 11.2506 16.6868 11.0922 16.8939 10.9612C17.3866 10.605 18 10.1615 18 9.47521C18 8.78894 17.3867 8.34544 16.8936 7.98919ZM12.9714 8.34266L9.63802 11.501C9.37777 11.7476 8.95577 11.7477 8.69544 11.5011C8.69538 11.5011 8.69533 11.501 8.69528 11.501L7.0286 9.92181C6.76497 9.67828 6.75961 9.27836 7.01664 9.02856C7.27366 8.77876 7.69574 8.77369 7.95938 9.01722C7.96342 9.02095 7.96741 9.02473 7.97135 9.02856L9.16665 10.1611L12.0286 7.44939C12.2857 7.19959 12.7077 7.19454 12.9714 7.43807C13.235 7.6816 13.2403 8.08152 12.9833 8.33132C12.9794 8.33517 12.9754 8.33893 12.9714 8.34266Z" fill="#19B269"/>
</svg>



